<svg xmlns="http://www.w3.org/2000/svg" width="20.721" height="20.721" viewBox="0 0 20.721 20.721"><defs><style>.a{fill:none;}.b{fill:#93a1d9;}</style></defs><path class="a" d="M0,0H20.721V20.721H0Z"/><path class="b" d="M10.634,6.453V3H2V18.541H19.267V6.453Zm-5.18,10.36H3.727V15.087H5.453Zm0-3.453H3.727V11.634H5.453Zm0-3.453H3.727V8.18H5.453Zm0-3.453H3.727V4.727H5.453Zm3.453,10.36H7.18V15.087H8.907Zm0-3.453H7.18V11.634H8.907Zm0-3.453H7.18V8.18H8.907Zm0-3.453H7.18V4.727H8.907Zm8.634,10.36H10.634V15.087H12.36V13.36H10.634V11.634H12.36V9.907H10.634V8.18h6.907ZM15.814,9.907H14.087v1.727h1.727Zm0,3.453H14.087v1.727h1.727Z" transform="translate(-0.273 -0.41)"/></svg>