<svg xmlns="http://www.w3.org/2000/svg" width="26.65" height="18.655" viewBox="0 0 26.65 18.655"><defs><style>.a{fill:#97a5de;}</style></defs><path class="a" d="M23.985,3H2.665A2.672,2.672,0,0,0,0,5.665V18.99a2.672,2.672,0,0,0,2.665,2.665h21.32A2.673,2.673,0,0,0,26.65,18.99V5.665A2.673,2.673,0,0,0,23.985,3Zm0,15.99H2.665V11h21.32ZM23.985,7H2.665V5.665h21.32ZM5.33,13.793v.8h.8v-.8Zm4.8,1.6v.8h1.6v-.8h.8v-.8h.8v-.8h-1.6v.8h-.8v.8Zm3.2.8v-.8h-.8v.8Zm-4,0v-.8h-1.6v.8Zm.8-1.6h.8v-.8h-1.6v1.6h.8Zm-3.2.8h.8v-.8h.8v-.8h-1.6v.8h-.8v.8h-.8v.8h1.6Z" transform="translate(0 -3)"/></svg>