<svg xmlns="http://www.w3.org/2000/svg" width="19.555" height="18.075" viewBox="0 0 19.555 18.075"><defs><style>.a{fill:#97a5de;}</style></defs><g transform="translate(0 0)"><path class="a" d="M12.573,15.973H4.7l.095-1.161V7.136C4.238,7,3.693,6.85,3.217,6.69,1.869,6.237.068,5.454,0,3.894-.064,2.35,1.516,1.185,5.286,0a3.509,3.509,0,0,0,.066,2.373A8.667,8.667,0,0,0,2.367,3.8,10.761,10.761,0,0,0,6.142,5.1H11.38a1.068,1.068,0,0,1,.3.042,1.129,1.129,0,0,1,.839.514l.152.236L11.4,7.452l4.249,3.468,2.773-3.4a1.17,1.17,0,0,1,.165.2,1.138,1.138,0,0,1-.352,1.568l-3.363,2.132a1.136,1.136,0,0,1-1.564-.345L12.479,9.8v5.017l.094,1.159ZM8.063,7.9h0l-.777,5.73,1.349,1.705,1.351-1.705L9.207,7.9a1.6,1.6,0,0,1-1.144,0Zm.032-1.73-.27,1.065.042.066A1.2,1.2,0,0,0,9.4,7.3l.041-.066-.27-1.065H8.095Z" transform="translate(0 2.102)"/><path class="a" d="M137.294,3.2a3.2,3.2,0,1,0,3.2-3.2A3.2,3.2,0,0,0,137.294,3.2Zm5.165.564-.069.421a3.21,3.21,0,0,0-2.721,1.142l-.314-.288A3.631,3.631,0,0,1,142.459,3.761Z" transform="translate(-131.856)"/><rect class="a" width="6.252" height="4.831" transform="translate(11.859 9.506) rotate(-50.775)"/></g></svg>