<svg xmlns="http://www.w3.org/2000/svg" width="14.87" height="14.276" viewBox="0 0 14.87 14.276"><defs><style>.a{fill:#97a5de;}</style></defs><g transform="translate(-4 -1023.362)"><g transform="translate(4 1023.362)"><path class="a" d="M7.866,3a.9.9,0,0,0-.892.892v.3H5.011A1.049,1.049,0,0,0,4,5.268V16.2a1.049,1.049,0,0,0,1.011,1.078H17.86A1.049,1.049,0,0,0,18.87,16.2V5.268A1.049,1.049,0,0,0,17.86,4.19H15.9v-.3a.892.892,0,0,0-1.784,0v.3H8.759v-.3A.9.9,0,0,0,7.866,3Zm0,.595a.29.29,0,0,1,.3.3V5.677a.3.3,0,0,1-.595,0V3.892A.29.29,0,0,1,7.866,3.595Zm7.138,0a.29.29,0,0,1,.3.3V5.677a.3.3,0,1,1-.595,0V3.892A.29.29,0,0,1,15,3.595ZM5.011,4.784H6.974v.892a.892.892,0,1,0,1.784,0V4.784h5.353v.892a.892.892,0,0,0,1.784,0V4.784H17.86a.447.447,0,0,1,.416.483V16.2a.447.447,0,0,1-.416.483H5.011a.447.447,0,0,1-.416-.483V5.268A.447.447,0,0,1,5.011,4.784ZM12.03,7.759a.3.3,0,0,0-.3.3V9.84a.3.3,0,0,0,.3.3h1.784a.3.3,0,0,0,.3-.3V8.056a.3.3,0,0,0-.3-.3Zm2.974,0a.3.3,0,0,0-.3.3V9.84a.3.3,0,0,0,.3.3h1.784a.3.3,0,0,0,.3-.3V8.056a.3.3,0,0,0-.3-.3Zm-2.677.595h1.19v1.19h-1.19Zm2.974,0h1.19v1.19H15.3Zm-9.22,2.379a.3.3,0,0,0-.3.3v1.784a.3.3,0,0,0,.3.3H7.866a.3.3,0,0,0,.3-.3V11.03a.3.3,0,0,0-.3-.3Zm2.974,0a.3.3,0,0,0-.3.3v1.784a.3.3,0,0,0,.3.3H10.84a.3.3,0,0,0,.3-.3V11.03a.3.3,0,0,0-.3-.3Zm2.974,0a.3.3,0,0,0-.3.3v1.784a.3.3,0,0,0,.3.3h1.784a.3.3,0,0,0,.3-.3V11.03a.3.3,0,0,0-.3-.3Zm2.974,0a.3.3,0,0,0-.3.3v1.784a.3.3,0,0,0,.3.3h1.784a.3.3,0,0,0,.3-.3V11.03a.3.3,0,0,0-.3-.3Zm-8.625.595h1.19v1.19H6.379Zm2.974,0h1.19v1.19H9.353Zm2.974,0h1.19v1.19h-1.19Zm2.974,0h1.19v1.19H15.3Zm-9.22,2.379a.3.3,0,0,0-.3.3v1.784a.3.3,0,0,0,.3.3H7.866a.3.3,0,0,0,.3-.3V14a.3.3,0,0,0-.3-.3Zm2.974,0a.3.3,0,0,0-.3.3v1.784a.3.3,0,0,0,.3.3H10.84a.3.3,0,0,0,.3-.3V14a.3.3,0,0,0-.3-.3Zm2.974,0a.3.3,0,0,0-.3.3v1.784a.3.3,0,0,0,.3.3h1.784a.3.3,0,0,0,.3-.3V14a.3.3,0,0,0-.3-.3ZM6.379,14.3h1.19v1.19H6.379Zm2.974,0h1.19v1.19H9.353Zm2.974,0h1.19v1.19h-1.19Z" transform="translate(-4 -3)"/></g></g></svg>