<svg xmlns="http://www.w3.org/2000/svg" width="13.445" height="13.445" viewBox="0 0 13.445 13.445"><defs><style>.a{fill:#fff;fill-rule:evenodd;}</style></defs><g transform="translate(0 -0.001)"><g transform="translate(0 0.001)"><g transform="translate(0)"><path class="a" d="M297.253,1123.134l-3.667-3.889a.717.717,0,0,0-.491-.244H285.33a1.394,1.394,0,0,0-1.33,1.414v4.706a.61.61,0,0,0,.666.6h0a.62.62,0,0,0,.676-.6v-4.034a.724.724,0,0,1,.659-.742h6.064v2.759a1.274,1.274,0,0,0,1.331,1.275h2.7v.742a.61.61,0,0,0,.666.6h0a.62.62,0,0,0,.676-.6V1123.6A.678.678,0,0,0,297.253,1123.134Zm-10.578,6.021a.672.672,0,0,0-.672-.672h-.672v1.344H286A.672.672,0,0,0,286.675,1129.155Zm1.342-.179A2.018,2.018,0,0,1,286,1131.1h-.658v.742a.619.619,0,0,1-.676.6h0a.61.61,0,0,1-.665-.6v-4.034a.724.724,0,0,1,.659-.742h1.23a2.093,2.093,0,0,1,2.128,1.908Zm3.378.179a.748.748,0,0,0-.686-.742h-.659v2.689h.659a.628.628,0,0,0,.686-.6Zm1.345-.07v1.345a2.023,2.023,0,0,1-2.017,2.017h-1.415a.6.6,0,0,1-.6-.6v-4.118a.658.658,0,0,1,.659-.658h1.358A2.023,2.023,0,0,1,292.739,1129.085Zm4.706-1.327v.017a.656.656,0,0,1-.686.637h-2v1.345h2a.7.7,0,0,1,.686.69v.017a.656.656,0,0,1-.686.637h-2v.742a.619.619,0,0,1-.676.6h0a.61.61,0,0,1-.665-.6v-4.034a.724.724,0,0,1,.659-.742h2.689a.7.7,0,0,1,.686.69Z" transform="translate(-284 -1119.001)"/></g></g></g></svg>