<svg xmlns="http://www.w3.org/2000/svg" width="18.866" height="9.77" viewBox="0 0 18.866 9.77"><defs><style>.a{fill:#97a5de;}</style></defs><g transform="translate(-4 -22)"><path class="a" d="M4.337,34.478A.337.337,0,0,1,4,34.141v-4.38a.337.337,0,0,1,.184-.3l6.347-3.228a1.335,1.335,0,0,1,1.177-.025l.857.4a.337.337,0,1,1-.286.61l-.856-.4a.659.659,0,0,0-.582.013L4.674,29.968v3.655L5.6,33.21a.835.835,0,0,1,.75.025.141.141,0,0,0,.1.02l3.857-.613a.916.916,0,0,0,.661-.464,1.589,1.589,0,0,1,.85-.722L15.548,30.1a.764.764,0,1,0-.5-1.442c-.526.176-1.557.513-2.533.783a5.042,5.042,0,0,1-2.038.352.337.337,0,1,1,.137-.66,5.338,5.338,0,0,0,1.721-.342c.962-.266,1.979-.6,2.5-.773a1.438,1.438,0,0,1,.948,2.714l-3.734,1.358a.916.916,0,0,0-.491.415,1.586,1.586,0,0,1-1.145.8l-3.858.613a.8.8,0,0,1-.53-.1.13.13,0,0,0-.133,0l-1.416.63A.334.334,0,0,1,4.337,34.478Z" transform="translate(0 -2.708)"/><path class="a" d="M24.739,26.933l-.034,0a.337.337,0,0,1-.3-.369s.046-.456.046-.748a1.507,1.507,0,0,0-.271-.587.337.337,0,1,1,.55-.39,2.064,2.064,0,0,1,.395.977c0,.326-.047.8-.049.816A.337.337,0,0,1,24.739,26.933Zm11.129,2.816H25.762a.337.337,0,0,1-.337-.337v-.526a.337.337,0,1,1,.674,0v.189h9.433v-6.4H26.1v3.733a.337.337,0,1,1-.674,0v-4.07A.337.337,0,0,1,25.762,22H35.869a.337.337,0,0,1,.337.337v7.075A.337.337,0,0,1,35.869,29.749Z" transform="translate(-13.339)"/><path class="a" d="M24.614,36.406a2.215,2.215,0,0,1-1.929-1.068A.337.337,0,1,1,23.268,35a1.539,1.539,0,0,0,1.346.731,1.441,1.441,0,0,0,1.516-1.348.337.337,0,0,1,.674,0,2.113,2.113,0,0,1-2.19,2.021ZM30.678,32.2h-.505a.337.337,0,1,1,0-.674h.505a.168.168,0,0,0,0-.337.842.842,0,0,1,0-1.684h.505a.337.337,0,0,1,0,.674h-.505a.168.168,0,0,0,0,.337.842.842,0,1,1,0,1.684Z" transform="translate(-12.36 -4.973)"/><path class="a" d="M45.837,28.848a.337.337,0,0,1-.337-.337v-.674a.337.337,0,1,1,.674,0v.674A.337.337,0,0,1,45.837,28.848Zm0,2.7a.337.337,0,0,1-.337-.337v-.337a.337.337,0,1,1,.674,0v.337A.337.337,0,0,1,45.837,31.543Zm2.358-.674H47.69a.337.337,0,1,1,0-.674H48.2a.168.168,0,0,0,0-.337.842.842,0,1,1,0-1.684H48.7a.337.337,0,0,1,0,.674H48.2a.168.168,0,1,0,0,.337.842.842,0,0,1,0,1.684Z" transform="translate(-27.519 -3.647)"/><path class="a" d="M52.837,28.848a.337.337,0,0,1-.337-.337v-.674a.337.337,0,1,1,.674,0v.674A.337.337,0,0,1,52.837,28.848Zm0,2.7a.337.337,0,0,1-.337-.337v-.337a.337.337,0,1,1,.674,0v.337A.337.337,0,0,1,52.837,31.543Z" transform="translate(-32.16 -3.647)"/></g></svg>