<svg xmlns="http://www.w3.org/2000/svg" width="11.757" height="13.279" viewBox="0 0 11.757 13.279"><defs><style>.a{fill:#fff;}</style></defs><path class="a" d="M14.46,3a1.286,1.286,0,0,0-1.277,1.277,1.232,1.232,0,0,0,.016.192,3.243,3.243,0,0,0-.941-.16c-2.424,0-3.57,3.071-4.454,3.719-.906.666-3.359,0-3.7,1.564a1.135,1.135,0,0,0,.032,1.069,4.582,4.582,0,0,0,.7,1.085A12.493,12.493,0,0,0,7.581,14.06a2.3,2.3,0,0,0,2.282,2.219,2.259,2.259,0,0,0,1.341-.447,7.363,7.363,0,0,0,2.25.447,2.606,2.606,0,0,0,.75-.1.965.965,0,0,0,.607-.447c.522-.62.67-1.233-.3-2.824s2.773-5.189.447-7.454A1.279,1.279,0,0,0,14.46,3Zm0,1.021a.255.255,0,1,1-.255.255A.247.247,0,0,1,14.46,4.021Zm-2.2,1.309a2.862,2.862,0,0,1,1.357.415c1.5.824,1.277,1.859.4,4.022a5.7,5.7,0,0,0-.654,2.969A16.459,16.459,0,0,0,10.629,10.8,15.977,15.977,0,0,0,7.214,9.32a2.822,2.822,0,0,0,1.2-.463,5.64,5.64,0,0,0,1.1-1.309c.7-.989,1.568-2.219,2.746-2.219Zm-6.8,4.755a10.917,10.917,0,0,1,4.565,1.58c.021.012.042.02.063.032a2.145,2.145,0,0,0-.223-.016,2.3,2.3,0,0,0-2.059,1.309,11.349,11.349,0,0,1-2.186-1.915,3.628,3.628,0,0,1-.543-.814c-.032-.076-.042-.112-.048-.128a1.659,1.659,0,0,1,.431-.048Zm4.4,2.618a1.277,1.277,0,1,1-1.277,1.277A1.269,1.269,0,0,1,9.863,12.7Zm2.027.207A10.043,10.043,0,0,1,13.2,14.124a4.025,4.025,0,0,1,.638.91.515.515,0,0,1,.048.175,1.659,1.659,0,0,1-.431.048A5.912,5.912,0,0,1,11.922,15a2.27,2.27,0,0,0-.032-2.091Z" transform="translate(-3.979 -3)"/></svg>