<svg xmlns="http://www.w3.org/2000/svg" width="14.297" height="17.205" viewBox="0 0 14.297 17.205"><defs><style>.a{fill:none;}.b{fill:#97a5de;}</style></defs><g transform="translate(-41.032 -2.132)"><path class="a" d="M90.067,45.194a2,2,0,0,1-2.027-1.975V40.124L79.414,40.1a.419.419,0,0,0-.414.4V56.9a.445.445,0,0,0,.434.406h13.5A.384.384,0,0,0,93.3,56.9v-11.7ZM83.779,54a.8.8,0,1,1-1.593,0v-8.6a.8.8,0,1,1,1.593,0Zm3.186,0a.8.8,0,1,1-1.593,0V47.464a.8.8,0,1,1,1.593,0Zm3.186,0a.8.8,0,0,1-1.593,0v-4.46a.8.8,0,0,1,1.593,0Z" transform="translate(-37.968 -37.968)"/><path class="a" d="M346.434,69.621h2.071L346,67.2v2.043A.422.422,0,0,0,346.434,69.621Z" transform="translate(-294.335 -63.989)"/><path class="b" d="M159.8,153a.8.8,0,0,0-.8.8v8.6a.8.8,0,0,0,1.593,0v-8.6A.8.8,0,0,0,159.8,153Z" transform="translate(-114.782 -146.372)"/><path class="b" d="M239.8,205a.8.8,0,0,0-.8.8v6.531a.8.8,0,0,0,1.593,0V205.8A.8.8,0,0,0,239.8,205Z" transform="translate(-191.596 -196.301)"/><path class="b" d="M319.8,257a.8.8,0,0,0-.8.8v4.46a.8.8,0,0,0,1.593,0V257.8A.8.8,0,0,0,319.8,257Z" transform="translate(-268.41 -246.23)"/></g></svg>